<?xml version="1.0" encoding="UTF-8"?>
<svg width="752pt" height="752pt" version="1.1" viewBox="0 0 752 752" xmlns="http://www.w3.org/2000/svg">
 <path d="m568.09 317.7c0.089844 0.058594 0.16406 0.17969 0.22266 0.35938v0.13281c2.0742 6.0312 3.9258 11.77 5.5742 17.223 1.6484 5.4531 3.6797 9.4414 6.1055 11.961l0.13281 0.13281c2.0312 1.7109 3.6211 3.1406 4.7734 4.2891 1.0625 1.0625 1.7578 1.793 2.082 2.2109 1.5586 2.625 2.5117 5.6133 2.8242 8.9766-0.23828 1.625-0.46875 3.0508-0.70703 4.2852-0.26953 1.1523-0.5625 2.168-0.88281 3.0586l-1.9453 4.6875c-0.58984 1.7109-1.1641 3.3906-1.7266 5.0391-0.5 1.7031-0.95703 3.3945-1.3672 5.0352-0.0625 0.71094-0.17969 1.4258-0.35156 2.168-0.089844 0.83203-0.17969 1.5625-0.26953 2.2109l-0.089844 0.13281c-0.41016-0.14062-0.86719-0.34766-1.375-0.61719-3.7734-2.1211-6.6758-4.7773-8.707-7.9609-1.9727-3.2734-3.125-7.0781-3.4453-11.406-0.0625-0.92188-0.015625-2.1523 0.125-3.7148 0.09375-1.5312 0.17969-3.332 0.26172-5.3945l0.10156-2.5625c0.67188-1.2383 0.76172-3.1992 0.26172-5.8828-0.64844 2.8555-1.4727 6.25-2.4766 10.172-0.14844 0.64844-0.30859 1.3164-0.48828 1.9883-1.0586 4.0078-1.8008 7.4883-2.2109 10.434-0.41016 2.2109-0.61719 4.1289-0.61719 5.7461 0 3.6875 0.73828 7.418 2.2109 11.191 1.4688 3.6836 3.6836 7.3984 6.6289 11.141 1.8047 2.2148 3.2305 4.0078 4.2891 5.3945 1 1.3242 1.668 2.2305 1.9883 2.7031 1.8047 2.8906 2.7031 5.625 2.7031 8.2227 0 1.3242-0.82422 4.043-2.4766 8.1367-1.5312 4.0664-3.9102 9.5508-7.125 16.453l-10.391 21.711c-2.3906 4.9844-3.6719 10.418-3.8477 16.324-0.058594 1.7031-0.09375 3.6367-0.09375 5.793 0 2.0352 0.085938 4.3633 0.22656 6.9844-0.14062 3.9258-1.4141 6.7031-3.8047 8.3633-2.7695 1.8633-7.8828 2.7852-15.344 2.7852-4.7461 0-9.4922-0.36328-14.238-1.1055-5.957-1.0625-8.9297-2.3984-8.9297-4.0273 0-3.5352 1.793-8.7812 5.3945-15.742 0.64844-1.293 1.5-2.8828 2.5625-4.7734 1.0586-1.9453 2.3672-4.1875 3.9297-6.7188 1.4727-2.5352 3.1836-5.4102 5.1289-8.625 2.2148-3.7461 4.3945-7.5039 6.5469-11.281 2.1211-3.7734 4.1562-7.5312 6.1055-11.277 0-0.50391 0.09375-1.0039 0.26172-1.5039v-0.97266l0.13281-0.84375c-0.089844-2.8906-1.4375-5.4609-4.0664-7.7344-1.5625-1.332-4.625-3.2148-9.1914-5.6602l-2.5703-1.457c-0.91016-0.50391-1.6875-0.96484-2.3398-1.375-0.32813 0.91406-0.69531 1.8164-1.1055 2.6992-0.41016 0.91406-0.86719 1.7852-1.3672 2.6094-2.1211 3.332-5.5625 7.1602-10.305 11.496-2.8633 2.3906-5.3555 4.5664-7.4766 6.5469-2.125 1.9453-3.9219 3.6133-5.3984 4.9922-5.0625 5.0078-9.0469 10.055-11.941 15.121-2.1172 3.6055-3.9453 7.2422-5.4844 10.926-1.6484 3.5977-3.0039 7.2422-4.0625 10.926-0.58984 1.8828-1.168 3.9609-1.7266 6.2344-0.64844 2.2109-1.2695 4.6289-1.8633 7.25-1.293 3.3672-3.3008 5.6602-6.0156 6.9023-3.0039 1.2031-8.4414 1.8164-16.316 1.8164h-11.414c-5.625-0.23828-8.418-1.0898-8.3516-2.5664-0.070312-2.1172 0.60156-4.6562 1.9883-7.6055 1.293-3.0312 3.3398-6.5156 6.1445-10.43 1.8008-2.625 4.1992-5.8242 7.2031-9.5977 2.9531-3.6523 6.5156-7.8242 10.703-12.512l16.801-19.633c0.41016-0.47266 0.73828-0.88281 0.97266-1.2383l1.5938-2.082c0.50391-0.64844 1-1.2461 1.5039-1.8086-0.91406-6.3086-2.9609-11.512-6.1445-15.617-3.1836-4.1523-7.5664-7.1445-13.133-8.9727-3.1328-1.0625-7.2266-1.8242-12.297-2.3047-0.41016-0.089843-0.77734-0.13281-1.1055-0.13281h-4.7773v-0.35156c-3.7734-0.26172-7.9453-0.39453-12.512-0.39453-1.5625 0-3.8867 0.30078-6.9883 0.88281-3.125 0.48047-7.0547 1.2852-11.801 2.4297-3.6836 0.92188-6.6367 1.6094-8.8516 2.082-2.2031 0.5-3.6367 0.75391-4.2891 0.75391h-0.34766l-18.348 5.8359c-1.4062-4.2266-5.8164-10.855-13.223-19.902 2.9453 16.754 4.2305 25.488 3.8398 26.227-4.0078 6.957-12.043 14.648-24.102 23.086-9.0781 6.2773-16.727 10.293-22.949 12.027 0.5 0.97266 1.0781 1.832 1.7266 2.5625 1.9727 2.3008 5.0156 3.6836 9.1094 4.1562 1.1484 0.089844 2.4961 0.22266 4.0273 0.39453 1.4727 0.089844 3.1953 0.20703 5.1719 0.35156 2.7695 0.58984 4.1992 2.3164 4.2891 5.1719 0 1.3008-0.27734 3.5078-0.84375 6.6367-0.58594 3.0938-1.3672 7.0625-2.3398 11.898-1.1484 5.2148-2.1367 9.1367-2.9609 11.762-0.82031 2.5312-1.4727 3.8047-1.9414 3.8047-2.1211 0-4.8203-1.3906-8.0938-4.1562-3.3633-2.7148-7.293-6.8398-11.809-12.383-4.832-5.75-8.5195-10.473-11.055-14.148-1.2109 1.4727-2.3906 2.8242-3.5352 4.0625-1.1523 1.3008-2.2578 2.4453-3.3164 3.4453l-1.1055 3.543c-2.0625 5.8086-4.0664 9.6992-6.0156 11.676l-15.344 1.9453c-5.7188 0.73828-10.582 1.1055-14.59 1.1055-3.8633 0-5.793-1.1055-5.793-3.3203 0-0.46875 1.1953-2.4297 3.582-5.8789 2.4453-3.4219 6.0898-8.3789 10.926-14.855 4.7461-6.4609 8.3398-11.367 10.789-14.734 2.3555-3.2695 3.582-5.0234 3.6719-5.2617-0.089844-1.0586-0.86719-2.3672-2.3477-3.9297l-4.9922-4.5586c-4.9258-4.4219-7.3867-8.3398-7.3867-11.762 0-2.5352 1.2695-5.2305 3.8047-8.0938 0.64844-0.73828 1.6797-1.7266 3.0938-2.9609 1.3906-1.2383 3.0938-2.668 5.1289-4.2891 3.9219-3.125 6.7031-5.6562 8.3555-7.6055 2.3555-2.9531 3.582-5.8516 3.668-8.707-1.5625-0.26953-3.4062-0.68359-5.5234-1.2422-3.6836-1.0586-10.965 0.41406-21.844 4.4258-2.6836 0.97266-5.0156 2.2891-6.9883 3.9375-2.1211 5.0742-3.2734 10.051-3.4453 14.949-0.14844 7.6914-2.9375 16.449-8.3555 26.262-5.3945 9.9102-10.098 14.859-14.109 14.859-0.14844 0-1.5781-3.7148-4.2891-11.145-2.9531-7.8672-5.4102-12.66-7.3828-14.371-6.6914-5.7461-10.039-14.34-10.039-25.777 0-0.82031 0.042969-1.6484 0.13281-2.4727h-2.4766c-0.82422 0.26172-2.457 0.87891-4.9102 1.8594-2.2109 0.82422-3.9219 1.2383-5.1289 1.2383-5.7461 0-10.629-5.0391-14.633-15.121-4.6641-11.527-7.6836-17.75-9.0664-18.664-5.1562-3.5039-9.3711-9.3867-12.645-17.648-3.0352-7.7812-4.5586-15.797-4.5586-24.051 0-2.9453 2.625-12.371 7.8711-28.258 5.3945-15.863 8.2969-24.457 8.707-25.785 2.3008-6.6289 9.2578-10.965 20.875-12.996 4.0078-0.65234 10.465-1.1367 19.371-1.4609 8.9297-0.32813 15.727-3.8867 20.387-10.703 2.625-3.9219 5.082-7.1445 7.3828-9.6836 8.8438-10.23 15.02-17.07 18.527-20.516 16.27-15.863 35.305-23.789 57.086-23.789 19.312 0 46.805 9.3594 82.473 28.078 9.3203 4.9258 22.488 12.094 39.539 21.496 13.824 7.457 24.094 12.203 30.82 14.238 1.8008 0.58984 5.7148 1.4141 11.762 2.4727h21.496c24.699-1.5625 44.059 9.3203 58.055 32.637 0.14453 0.21484 0.3125 0.50391 0.48438 0.85547zm-361.64 14.109c-0.089843 0.14844-0.16406 0.35938-0.22266 0.625-1.6484 3.0039-2.4727 6.2344-2.4727 9.6836 0 1.8828 0.61719 3.8477 1.8594 5.8828 1.4727 2.4453 3.3164 3.6719 5.5234 3.6719 5.0742 0 9.1562-2.8555 12.25-8.5781 2.8555-5.2188 4.2891-11.48 4.2891-18.797 0-3.5078-0.97266-9.1094-2.9219-16.801-1.3242-4.6641-2.3906-8.0938-3.1836-10.305 0.78516 6.25-0.30859 13.672-3.293 22.262-2.9844 8.5898-6.9258 12.711-11.828 12.355z" fill-rule="evenodd"/>
</svg>
